#N canvas 635 313 887 581 10;
#X obj 337 391 spoutReceive truc;
#X obj 229 170 gemwin;
#X obj 309 181 gemhead;
#X msg 227 130 create \, 1 \, frame 60;
#X msg 174 133 destroy;
#X obj 769 439 spoutSend tata;
#X obj 761 386 gemhead;
#X obj 345 214 gemframebuffer;
#X obj 341 311 translateXYZ 0 0 -4;
#X msg 424 142 rectangle 1 \, dimen 1024 1024;
#X msg 815 397 set ratata;
#X obj 600 429 pix_texture;
#X obj 600 511 cube 1;
#X obj 585 298 gemhead 51;
#X obj 322 279 spigot 1;
#X obj 370 254 tgl 15 0 empty empty empty 17 7 0 10 -262144 -1 -1 0
1;
#X obj 600 471 rotateXYZ 20 20 20;
#X obj 702 417 f;
#X obj 702 438 + 1;
#X obj 693 387 b;
#X obj 419 104 loadbang;
#X obj 533 367 gemframebuffer;
#X obj 533 388 translateXYZ 0 0 -4;
#X msg 419 359 set toto;
#X connect 2 0 7 0;
#X connect 2 0 14 0;
#X connect 3 0 1 0;
#X connect 4 0 1 0;
#X connect 6 0 5 0;
#X connect 7 0 8 0;
#X connect 7 1 11 1;
#X connect 8 0 0 0;
#X connect 9 0 7 0;
#X connect 9 0 21 0;
#X connect 10 0 5 0;
#X connect 11 0 16 0;
#X connect 13 0 11 0;
#X connect 13 0 19 0;
#X connect 13 0 21 0;
#X connect 14 0 0 0;
#X connect 15 0 14 1;
#X connect 16 0 12 0;
#X connect 17 0 18 0;
#X connect 18 0 17 1;
#X connect 18 0 16 2;
#X connect 18 0 16 3;
#X connect 19 0 17 0;
#X connect 20 0 9 0;
#X connect 21 0 22 0;
#X connect 21 1 5 1;
#X connect 22 0 11 0;
#X connect 23 0 0 0;
