#N canvas 7 35 1163 392 10;
#X obj 186 250 pix_video;
#X obj 184 279 pix_texture;
#X floatatom 495 126 5 0 0 0 - - -;
#X obj 189 103 gemhead;
#X obj 447 213 gemhead;
#X obj 448 266 pix_texture;
#X obj 447 293 square 4;
#X msg 497 172 \$1 1 1 3553 0;
#X obj 628 272 GEMglDeleteTextures;
#X obj 627 241 gemhead;
#X floatatom 741 246 5 0 0 0 - - -;
#X obj 187 200 nFBO;
#X obj 182 317 square 4;
#X msg 69 151 dimen 1024 1024;
#X obj 352 236 spigot;
#X obj 388 199 tgl 15 0 empty empty empty 17 7 0 10 -262144 -1 -1 0
1;
#X obj 385 141 loadbang;
#X msg 389 175 1;
#X floatatom 284 274 5 0 0 0 - - -;
#X msg 287 249 \$1;
#X obj 208 165 bng 15 250 50 0 empty empty empty 17 7 0 10 -262144
-1 -1;
#X text 593 89 pas de polution sur la console!;
#X text 593 110 possibilité de sauvegarder les textures dans la VRAM
;
#X text 215 137 1 : bang;
#X text 475 103 2 play with;
#X text 738 222 3 : delete texture;
#X text 592 67 idem gemframebuffer \, no translateXYZ 0 0 -4;
#X text 593 42 nFBO by Arnaud courcelle 06/2015;
#X connect 0 0 1 0;
#X connect 1 0 12 0;
#X connect 2 0 7 0;
#X connect 3 0 11 0;
#X connect 4 0 5 0;
#X connect 5 0 6 0;
#X connect 7 0 5 1;
#X connect 9 0 8 0;
#X connect 10 0 8 1;
#X connect 11 0 0 0;
#X connect 11 1 14 0;
#X connect 11 1 19 0;
#X connect 13 0 11 0;
#X connect 14 0 5 1;
#X connect 15 0 14 1;
#X connect 16 0 17 0;
#X connect 17 0 15 0;
#X connect 19 0 18 0;
#X connect 20 0 11 0;
