#N canvas 226 314 931 520 10;
#X obj 317 235 gemhead;
#X obj 276 99 gemwin;
#X msg 263 55 create \, 1;
#X msg 368 72 destroy;
#X text 8 60 syphonClient V2 Arnaud COurcelle;
#X obj 313 317 syphonserver2;
#X obj 647 106 gemframebuffer;
#X obj 644 146 translateXYZ 0 0 -4;
#X obj 644 177 pix_video;
#X obj 645 209 pix_texture;
#X msg 755 67 dimen 1024 1024 \, rectangle 1;
#X msg 745 214 rectangle 1;
#X obj 706 16 loadbang;
#X msg 767 115 dimen 20 20;
#X msg 768 89 dimen 2048 2048;
#X obj 646 254 square 2;
#X obj 494 231 spigot 1;
#X obj 554 229 spigot 0;
#X obj 602 204 == 0;
#X msg 495 110 set truc-much;
#X msg 494 138 set pdextended;
#X obj 777 140 tgl 15 0 empty empty empty 17 7 0 10 -262144 -1 -1 0
1;
#X text 8 101 set server name;
#X obj 646 65 gemhead 49;
#X text 11 132 work only with texture rectangle;
#X text 857 128 try it!;
#X connect 0 0 5 0;
#X connect 2 0 1 0;
#X connect 3 0 1 0;
#X connect 6 0 7 0;
#X connect 6 1 5 1;
#X connect 6 1 16 0;
#X connect 7 0 8 0;
#X connect 8 0 9 0;
#X connect 9 0 15 0;
#X connect 9 1 17 0;
#X connect 10 0 6 0;
#X connect 11 0 9 0;
#X connect 12 0 10 0;
#X connect 12 0 11 0;
#X connect 13 0 6 0;
#X connect 14 0 6 0;
#X connect 16 0 5 1;
#X connect 17 0 5 1;
#X connect 18 0 17 1;
#X connect 19 0 5 0;
#X connect 20 0 5 0;
#X connect 21 0 18 0;
#X connect 21 0 16 1;
#X connect 23 0 6 0;
#X connect 23 0 8 0;
