#N canvas 498 23 775 382 10;
#X obj 310 144 gemhead;
#X obj 276 99 gemwin;
#X msg 263 55 create \, 1;
#X msg 368 72 destroy;
#X obj 308 288 pix_texture;
#X msg 482 252 server coucou;
#X msg 512 193 appli -;
#X msg 513 170 server -;
#X msg 389 145 get;
#X obj 391 280 print;
#X obj 307 236 syphonclient;
#X msg 194 191 info;
#X msg 494 138 set pdextended coucou;
#X msg 495 110 set Simple_Server -;
#X text 8 101 set appli server;
#X text 7 130 if the server name is unknown for exemple \,;
#X text 8 60 syphonClient V2 Arnaud COurcelle;
#X text 8 143 replace with -;
#X text 6 116 if there is space in name \, replace with _;
#X obj 314 312 translateXYZ 2 0 0;
#X obj 310 341 square 2;
#X obj 615 165 gemhead;
#X obj 613 309 pix_texture;
#X msg 787 273 server coucou;
#X msg 817 214 appli -;
#X msg 818 191 server -;
#X msg 788 239 appli pdextended;
#X msg 694 166 get;
#X obj 696 301 print;
#X obj 612 257 syphonclient;
#X msg 799 159 set pdextended coucou;
#X msg 800 131 set Simple_Server -;
#X obj 615 362 square 2;
#X obj 619 333 translateXYZ -2 0 0;
#X msg 483 218 appli pd;
#X connect 0 0 10 0;
#X connect 2 0 1 0;
#X connect 3 0 1 0;
#X connect 4 0 19 0;
#X connect 5 0 10 0;
#X connect 6 0 10 0;
#X connect 7 0 10 0;
#X connect 8 0 10 0;
#X connect 10 0 4 0;
#X connect 10 1 4 1;
#X connect 10 2 9 0;
#X connect 11 0 10 0;
#X connect 12 0 10 0;
#X connect 13 0 10 0;
#X connect 19 0 20 0;
#X connect 21 0 29 0;
#X connect 22 0 33 0;
#X connect 23 0 29 0;
#X connect 24 0 29 0;
#X connect 25 0 29 0;
#X connect 26 0 29 0;
#X connect 27 0 29 0;
#X connect 29 0 22 0;
#X connect 29 1 22 1;
#X connect 29 2 28 0;
#X connect 30 0 29 0;
#X connect 31 0 29 0;
#X connect 33 0 32 0;
#X connect 34 0 10 0;
