#N canvas 674 112 590 488 10;
#X obj 64 176 gemhead;
#X obj 63 150 b;
#X obj 70 289 scaleXYZ;
#X obj 66 209 t a b;
#X obj 92 236 ofExpr \; ofGetWidth/8 \; ofGetHeight/8 \;;
#X obj 73 363 outlet;
#X obj 54 17 inlet;
#X obj 245 117 pack;
#X msg 247 152 allocate \$1 \$2 RGB;
#X obj 238 89 ofGetWidth;
#X obj 282 111 ofGetHeight;
#X obj 360 24 ofWindowListener;
#X obj 384 54 sel 1;
#X obj 381 78 t b b;
#X obj 62 124 ofCreateFbo \$1 320 240 RGBA;
#X obj 56 82 ofHead \$2;
#X obj 56 34 route set name;
#X obj 93 61 ofPrepend name;
#X obj 72 314 translateXYZ 4 4 0;
#X obj 73 338 scaleXYZ 1 -1 0;
#X connect 0 0 3 0;
#X connect 1 0 0 0;
#X connect 2 0 18 0;
#X connect 3 0 2 0;
#X connect 3 1 4 0;
#X connect 4 0 2 1;
#X connect 4 1 2 2;
#X connect 6 0 16 0;
#X connect 7 0 8 0;
#X connect 8 0 14 0;
#X connect 9 0 7 0;
#X connect 10 0 7 1;
#X connect 11 0 12 0;
#X connect 12 0 13 0;
#X connect 13 0 9 0;
#X connect 13 1 10 0;
#X connect 14 0 1 0;
#X connect 15 0 14 0;
#X connect 16 0 15 1;
#X connect 16 1 17 0;
#X connect 16 2 15 0;
#X connect 17 0 14 0;
#X connect 18 0 19 0;
#X connect 19 0 5 0;
