#N canvas 0 22 450 300 10;
#X obj 188 195 gemwin;
#X obj 167 80 ofWindowListener;
#X obj 166 138 == 0;
#X msg 202 138 dimen 1 1 \, border 0 \, create;
#X obj 214 101 loadbang;
#X obj 205 48 inlet;
#X connect 1 0 2 0;
#X connect 2 0 0 0;
#X connect 3 0 0 0;
#X connect 4 0 3 0;
#X connect 5 0 3 0;
