#N canvas 450 96 680 523 10;
#X obj 53 104 gemhead;
#X obj 52 78 b;
#X obj 62 292 scaleXYZ;
#X obj 55 137 t a b;
#X obj 60 252 translateXYZ 4 4 0;
#X obj 64 341 outlet;
#X obj 54 17 inlet;
#X obj 56 34 route set;
#X obj 148 228 * 4;
#X obj 81 164 ofExpr \; ofGetWidth/2 \; ofGetHeight/8 \; min(ofGetWidth
\, ofGetHeight)/8;
#X obj 53 55 ofHead 50;
#X obj 187 29 loadbang;
#X obj 191 63 \$1;
#X obj 192 93 sel 0;
#X msg 196 129 50;
#X obj 64 316 scaleXYZ 1 -1 0;
#X connect 0 0 3 0;
#X connect 1 0 0 0;
#X connect 2 0 15 0;
#X connect 3 0 4 0;
#X connect 3 1 9 0;
#X connect 4 0 2 0;
#X connect 6 0 7 0;
#X connect 7 0 10 1;
#X connect 7 1 10 0;
#X connect 8 0 4 2;
#X connect 9 0 4 1;
#X connect 9 1 8 0;
#X connect 9 2 2 1;
#X connect 9 2 2 2;
#X connect 10 0 1 0;
#X connect 11 0 12 0;
#X connect 12 0 13 0;
#X connect 13 0 14 0;
#X connect 13 1 10 1;
#X connect 14 0 10 1;
#X connect 15 0 5 0;
